<?xml version="1.0" standalone="no"?>
<!DOCTYPE svg PUBLIC "-//W3C//DTD SVG 20010904//EN"
 "http://www.w3.org/TR/2001/REC-SVG-20010904/DTD/svg10.dtd">
<svg version="1.0" xmlns="http://www.w3.org/2000/svg"
 width="442.000000pt" height="283.000000pt" viewBox="0 0 442.000000 283.000000"
 preserveAspectRatio="xMidYMid meet">

<g transform="translate(0.000000,283.000000) scale(0.100000,-0.100000)"
fill="#000000" stroke="none">
<path d="M1780 2371 c-8 -4 -28 -14 -45 -22 -19 -9 -32 -25 -37 -44 -4 -17
-16 -61 -27 -100 -12 -40 -21 -98 -21 -137 l0 -68 -67 0 c-107 0 -316 -22
-333 -35 -19 -15 -107 -65 -114 -65 -3 0 -6 10 -6 23 0 12 -9 47 -20 77 -11
30 -25 96 -31 145 -7 50 -16 96 -22 103 -11 14 -49 16 -91 2 -17 -5 -60 -16
-96 -25 -36 -9 -90 -31 -120 -47 -30 -17 -75 -41 -100 -53 -70 -35 -74 -42
-60 -127 6 -39 16 -82 23 -94 27 -49 71 -111 99 -140 19 -21 32 -46 35 -73 5
-36 3 -41 -14 -41 -12 0 -27 -8 -34 -17 -8 -9 -51 -34 -96 -54 -53 -25 -88
-48 -100 -66 -10 -16 -23 -31 -30 -36 -19 -12 -70 -108 -86 -163 -8 -28 -22
-65 -31 -82 -11 -21 -12 -33 -5 -37 6 -4 11 -5 13 -4 26 40 40 71 52 117 15
57 55 130 81 145 7 4 20 21 28 37 11 22 38 40 105 71 50 23 90 45 90 50 0 4
12 9 28 11 23 3 28 8 30 37 5 50 -5 77 -42 119 -19 20 -42 51 -52 68 -11 17
-27 42 -36 55 -9 13 -22 55 -28 93 -10 65 -10 69 11 87 12 10 26 19 31 19 5 0
40 18 76 39 37 22 96 47 132 56 36 9 79 20 96 25 67 21 69 19 83 -82 10 -79
31 -160 62 -245 6 -16 17 -23 34 -23 14 0 25 4 25 8 0 5 12 15 28 22 15 8 38
22 52 31 15 10 57 19 105 23 l80 7 -47 -30 c-25 -16 -49 -34 -52 -40 -4 -6
-26 -15 -49 -22 -23 -6 -51 -19 -62 -28 -11 -9 -38 -29 -60 -44 -22 -15 -60
-43 -85 -62 -45 -35 -121 -75 -195 -101 -43 -16 -97 -62 -89 -76 8 -13 20 -9
45 16 13 12 48 31 76 40 29 10 55 22 58 27 4 5 13 9 21 9 13 0 13 -3 0 -22 -9
-12 -16 -37 -16 -55 0 -17 -4 -35 -10 -38 -5 -3 -10 -18 -10 -33 0 -15 -3 -37
-6 -49 -6 -22 -8 -23 -235 -25 -144 -2 -229 -7 -229 -13 0 -6 83 -11 225 -13
183 -2 225 -5 225 -16 0 -8 -9 -44 -21 -81 -21 -70 -22 -106 -1 -113 8 -2 12
7 12 25 0 16 9 54 20 86 11 31 20 66 20 77 0 20 5 20 285 20 157 0 285 -2 285
-4 0 -3 -5 -17 -10 -31 -9 -22 -18 -80 -32 -194 -1 -11 -90 -12 -542 -6 -298
4 -551 8 -563 9 -47 2 -22 -20 34 -29 32 -5 57 -14 56 -20 -1 -6 14 -9 36 -7
22 2 52 -3 68 -11 15 -8 51 -18 78 -21 79 -11 84 -17 57 -70 -25 -47 -62 -70
-103 -64 -16 2 -24 -2 -24 -12 0 -10 13 -16 41 -18 34 -3 46 2 75 30 92 88 78
148 -36 163 -28 3 -56 10 -62 13 -7 4 632 6 1420 4 832 -2 1436 -8 1441 -13 6
-5 33 -9 60 -10 66 -1 110 -17 50 -18 -24 -1 -47 -7 -54 -16 -7 -8 -11 -15 -9
-16 2 0 50 -1 107 -3 66 -1 101 2 99 8 -2 6 -14 13 -28 16 -13 4 41 9 121 12
106 4 153 10 175 22 25 13 65 16 228 16 167 0 197 2 197 15 0 12 -29 15 -176
17 l-176 3 27 29 c56 60 86 122 83 168 -3 39 -6 44 -38 55 -19 7 -92 12 -162
12 l-128 1 0 25 c0 39 -24 87 -61 121 -35 33 -132 61 -229 67 -35 2 -41 5 -25
11 11 5 30 18 42 29 18 16 32 19 68 15 39 -5 46 -3 43 11 -2 9 -15 17 -29 19
-25 3 -26 5 -21 51 2 30 0 51 -7 55 -6 4 -11 15 -11 25 0 10 -11 28 -24 40
-26 25 -96 133 -96 149 0 5 -7 15 -15 22 -8 7 -15 23 -15 36 0 30 -27 44 -83
44 -35 0 -75 -16 -203 -81 -87 -44 -185 -96 -218 -115 -69 -40 -68 -41 -129
54 l-41 64 -228 -4 c-125 -2 -228 -2 -228 0 0 2 12 27 26 56 14 28 32 64 40
79 17 36 19 131 2 144 -34 26 -584 47 -628 24z m510 -32 l100 -12 0 -44 c0
-25 -6 -57 -14 -71 -8 -15 -26 -54 -41 -87 -14 -33 -33 -73 -42 -88 -11 -22
-12 -32 -4 -40 8 -8 14 -8 19 -2 22 31 61 38 229 43 153 4 173 3 173 -11 0 -9
-4 -18 -9 -21 -4 -3 -38 -50 -74 -104 -37 -55 -73 -104 -81 -111 -10 -8 -117
-11 -386 -9 l-373 3 29 34 c15 19 46 47 69 63 22 16 120 108 218 205 122 121
176 181 172 191 -4 11 -58 -36 -188 -166 -101 -101 -196 -191 -213 -201 -16
-10 -52 -43 -79 -73 l-50 -55 -120 -7 c-128 -7 -397 -39 -468 -56 -60 -14 -61
-13 -25 18 58 48 142 100 174 107 17 3 41 17 54 30 12 13 36 29 53 36 18 7 42
23 54 36 20 21 31 23 111 23 104 0 102 -2 102 97 0 65 24 180 41 198 5 5 9 19
9 31 0 17 8 24 30 29 16 4 32 11 35 16 9 13 374 11 495 -2z m1155 -255 c15
-36 14 -38 -12 -81 -16 -24 -41 -68 -58 -96 -16 -29 -48 -76 -70 -105 l-39
-52 -121 0 c-66 0 -154 4 -195 10 -41 5 -141 13 -222 16 l-147 6 58 87 c32 47
68 97 80 110 11 13 21 32 21 43 0 12 7 18 23 18 17 0 32 -17 65 -69 23 -39 51
-73 62 -76 12 -4 44 9 92 36 40 23 91 51 113 61 22 11 54 27 70 36 132 72 180
92 221 92 41 0 45 -2 59 -36z m69 -127 c19 -29 41 -59 51 -67 21 -17 45 -75
45 -109 0 -53 -6 -55 -154 -44 -74 5 -138 12 -142 16 -3 3 7 23 23 44 17 21
40 57 52 81 19 37 81 130 89 131 1 1 17 -23 36 -52z m-1827 -244 c-33 -54
-113 -223 -121 -255 l-6 -28 -290 0 -290 0 6 43 c4 23 10 46 15 52 5 5 9 22 9
37 0 25 34 108 44 108 2 0 46 9 97 19 78 16 204 34 384 55 17 1 63 4 103 5
l72 1 -23 -37z m823 29 c0 -5 -13 -21 -30 -37 -16 -16 -30 -34 -30 -41 0 -6
-7 -17 -15 -24 -22 -18 -63 -114 -70 -165 l-7 -45 -384 0 -384 0 6 28 c4 15
13 38 20 52 8 14 18 36 24 50 5 14 14 32 19 40 5 8 19 35 31 60 12 25 31 55
43 68 l20 22 379 0 c208 0 378 -4 378 -8z m464 -13 c27 -5 94 -9 148 -9 l100
0 -26 -32 c-15 -18 -52 -64 -84 -102 -31 -39 -67 -92 -79 -119 -17 -36 -27
-48 -39 -43 -9 3 -149 6 -311 6 l-296 0 7 38 c7 49 52 152 66 152 5 0 10 6 10
14 0 8 19 37 43 65 l42 52 185 -7 c102 -3 207 -10 234 -15z m524 -26 c50 -5
52 -6 30 -19 -13 -7 -30 -16 -38 -20 -26 -12 -50 -36 -44 -45 3 -5 43 -9 89
-9 97 0 202 -24 228 -51 21 -22 16 -48 -13 -74 -11 -10 -20 -23 -20 -30 0 -7
-8 -19 -19 -29 -10 -9 -26 -34 -36 -56 -15 -33 -21 -38 -44 -34 -33 5 -242 34
-301 41 -25 3 -50 10 -56 14 -6 5 -62 12 -123 16 -61 3 -111 7 -111 9 0 30
120 194 195 267 l40 39 85 -6 c47 -4 109 -9 138 -13z m322 -251 l5 -47 150 -5
c83 -3 156 -9 163 -13 19 -12 14 -61 -8 -90 -11 -14 -20 -29 -20 -34 0 -4 -20
-30 -45 -56 l-46 -47 -1250 0 c-1187 0 -1249 1 -1241 18 5 9 12 49 15 87 3 39
11 85 17 103 l12 32 389 0 388 0 3 -72 c2 -46 7 -73 16 -76 9 -3 12 16 12 72
l0 76 305 0 c348 0 320 10 284 -96 -21 -60 -21 -94 0 -94 5 0 12 18 16 40 4
21 15 61 25 87 l18 48 54 -3 c92 -4 173 -14 183 -22 6 -4 90 -17 188 -30 l178
-24 -6 -25 c-4 -15 -16 -36 -28 -49 -16 -17 -18 -25 -9 -34 9 -9 18 -5 37 18
14 16 25 36 25 45 0 37 23 41 210 37 99 -1 180 0 180 4 0 21 -52 28 -194 28
-89 0 -156 4 -156 9 0 5 15 29 33 53 18 24 36 51 40 61 3 9 10 17 16 17 5 0
11 10 14 22 9 32 20 14 27 -40z m13 -329 c-40 -2 -106 -2 -145 0 -40 1 -8 3
72 3 80 0 112 -2 73 -3z"/>
<path d="M3199 1081 c-19 -15 -29 -33 -32 -63 -3 -24 -11 -75 -18 -115 -6 -39
-9 -79 -6 -87 9 -23 48 -20 113 9 31 14 62 25 68 25 18 0 64 51 90 101 13 24
32 46 41 48 15 2 13 -7 -13 -53 -56 -99 -42 -116 97 -116 83 0 91 2 91 19 0
23 -16 36 -25 21 -9 -15 -165 -13 -165 3 0 6 14 36 30 65 l30 52 56 0 c67 0
72 23 6 28 -33 3 -42 7 -42 22 0 27 -20 36 -27 11 -8 -30 -44 -27 -96 10 -60
42 -158 52 -198 20z m171 -37 c16 -10 30 -27 30 -37 0 -40 -63 -127 -92 -127
-8 0 -18 -4 -23 -8 -16 -14 -106 -45 -112 -39 -3 4 0 37 6 74 7 37 15 87 18
110 3 27 11 44 21 47 32 9 122 -3 152 -20z"/>
<path d="M542 1053 c-4 -10 -29 -54 -56 -96 -36 -58 -46 -81 -38 -89 7 -7 13
-10 15 -7 18 22 107 177 107 186 0 21 -20 25 -28 6z"/>
<path d="M2913 1051 c-3 -12 -21 -54 -39 -93 -46 -95 -43 -98 103 -98 87 0
114 3 111 13 -3 8 -36 13 -106 15 -114 3 -109 -4 -66 90 13 29 24 59 24 67 0
24 -21 28 -27 6z"/>
<path d="M1438 1055 c-5 -5 6 -81 17 -115 4 -13 -2 -15 -30 -12 -31 4 -33 6
-24 23 12 24 8 95 -6 92 -5 -1 -13 -21 -17 -45 -5 -25 -16 -50 -29 -61 -12
-10 -33 -38 -46 -63 -19 -36 -22 -49 -13 -58 9 -8 14 -8 17 1 2 7 14 27 27 45
19 28 28 33 69 36 45 3 47 2 64 -32 9 -20 23 -36 30 -36 16 0 16 2 3 34 -7 21
-6 26 5 26 20 0 19 12 -4 32 -11 9 -22 36 -26 66 -6 47 -24 79 -37 67z"/>
<path d="M1746 1041 c-4 -6 -22 -11 -40 -11 -51 0 -77 -35 -83 -112 -4 -47 -2
-66 8 -74 27 -21 209 -62 209 -46 0 16 -24 32 -47 32 -13 0 -51 8 -83 18 -57
16 -60 19 -60 49 0 37 16 84 33 95 7 4 24 8 38 8 32 0 57 26 42 41 -8 8 -13 7
-17 0z"/>
<path d="M2015 1040 c-3 -6 -11 -8 -16 -5 -10 7 -20 -15 -44 -102 -25 -88 -22
-93 76 -93 60 0 80 3 77 13 -3 7 -29 13 -72 15 -64 3 -67 4 -60 25 29 98 37
115 50 110 8 -3 14 0 14 6 0 7 27 11 76 11 56 0 75 3 72 13 -6 16 -163 23
-173 7z"/>
<path d="M2312 1033 c-8 -15 -18 -97 -25 -207 -3 -49 20 -41 26 9 11 76 20 85
83 85 40 0 54 3 51 13 -2 8 -24 12 -62 12 l-57 0 5 47 c6 50 -5 71 -21 41z"/>
<path d="M2467 1043 c-11 -18 -12 -246 -1 -250 15 -5 31 234 16 249 -5 5 -12
6 -15 1z"/>
<path d="M2627 1002 c-10 -10 -17 -24 -17 -31 0 -7 -8 -23 -18 -36 -10 -12
-24 -41 -32 -64 -12 -37 -11 -43 5 -61 25 -27 93 -27 128 0 14 11 29 20 34 20
4 0 25 16 46 35 39 36 47 68 26 107 -24 44 -141 65 -172 30z m141 -40 c7 -9
10 -28 7 -41 -6 -25 -42 -60 -61 -61 -6 0 -19 -9 -29 -20 -19 -21 -89 -29 -99
-11 -7 11 20 79 40 98 8 8 14 19 14 24 0 5 7 9 16 9 11 0 14 5 10 16 -6 15 0
16 41 10 28 -3 53 -13 61 -24z"/>
<path d="M3819 993 c-31 -36 -49 -68 -50 -90 0 -13 -3 -11 -10 6 -7 18 -12 22
-21 13 -9 -9 -8 -21 0 -49 6 -21 13 -49 14 -62 5 -41 28 -38 28 4 0 33 2 36
23 29 34 -10 77 -34 77 -42 0 -9 49 -32 67 -32 24 0 14 18 -22 40 l-36 22 41
31 c34 27 40 37 40 68 0 30 -6 41 -34 63 -46 34 -85 34 -117 -1z m81 -12 c0
-5 9 -13 20 -16 27 -9 26 -52 -2 -76 -31 -25 -73 -24 -97 2 -22 23 -15 46 23
81 20 19 56 24 56 9z"/>
<path d="M2036 964 c-31 -25 -43 -41 -37 -47 7 -7 19 -4 38 8 48 32 68 54 57
65 -7 7 -26 -2 -58 -26z"/>
<path d="M917 984 c-4 -4 -7 -15 -7 -23 0 -9 -11 -33 -25 -53 -14 -21 -28 -51
-31 -68 -6 -25 -3 -31 20 -40 41 -15 229 -13 224 3 -3 8 -37 14 -106 17 -55 3
-103 7 -106 10 -7 7 24 70 35 70 12 0 23 70 12 81 -5 5 -12 6 -16 3z"/>
<path d="M216 711 c-19 -21 -3 -42 17 -22 8 8 579 11 2099 11 1849 0 2088 2
2088 15 0 13 -239 15 -2093 15 -2045 0 -2094 0 -2111 -19z"/>
<path d="M876 672 c-3 -5 -7 -43 -10 -84 -2 -42 -10 -92 -17 -111 -19 -54 -3
-67 80 -67 63 0 68 2 84 29 10 17 17 50 17 79 0 46 -3 53 -38 80 -21 17 -50
34 -65 37 -15 4 -27 13 -27 20 0 17 -17 28 -24 17z m79 -86 c6 -7 18 -15 28
-19 12 -5 17 -17 17 -47 0 -67 -12 -80 -76 -80 -50 0 -55 2 -48 18 4 9 12 47
17 85 10 61 13 67 31 61 12 -3 26 -11 31 -18z"/>
<path d="M572 607 c-19 -23 -45 -158 -33 -170 14 -14 15 -13 33 63 l15 65 23
-52 c30 -69 53 -76 95 -30 48 52 78 105 70 124 -5 15 -10 13 -30 -12 -13 -17
-25 -34 -25 -40 0 -5 -12 -23 -26 -38 -25 -30 -54 -31 -54 -2 0 8 -4 23 -10
33 -5 9 -14 29 -20 45 -10 30 -22 34 -38 14z"/>
<path d="M395 588 c-2 -7 -6 -38 -9 -68 -3 -30 -6 -68 -8 -84 -2 -16 2 -31 8
-33 14 -5 23 29 32 125 6 56 5 72 -6 72 -7 0 -15 -6 -17 -12z"/>
<path d="M1136 592 c-13 -22 -37 -195 -28 -204 6 -6 39 -12 74 -15 62 -5 64
-5 78 23 8 16 18 31 21 34 15 12 50 103 44 117 -8 21 -13 14 -55 -70 l-37 -72
-46 1 c-26 0 -49 2 -51 5 -2 2 3 41 11 87 10 56 12 87 5 94 -6 6 -12 6 -16 0z"/>
<path d="M1530 514 c-19 -9 -37 -9 -76 -1 -70 14 -84 7 -84 -43 0 -50 33 -100
67 -100 29 0 29 -13 1 -40 -29 -27 -115 -28 -134 -2 -12 16 -13 16 -19 -1 -13
-32 13 -47 81 -47 56 0 68 4 95 27 23 21 29 34 27 58 -3 25 -8 31 -33 33 -35
4 -54 27 -55 64 0 26 1 26 58 23 31 -3 63 -4 70 -5 16 0 15 -31 -2 -56 -16
-22 -24 -89 -13 -101 11 -11 27 17 27 50 0 15 4 27 9 27 5 0 12 18 16 40 7 40
7 40 52 40 56 0 55 24 -3 28 -21 2 -43 7 -49 11 -5 4 -21 2 -35 -5z"/>
<path d="M1985 520 c-3 -6 1 -13 10 -16 19 -8 30 0 20 15 -8 14 -22 14 -30 1z"/>
<path d="M1722 467 c-29 -30 -74 -145 -61 -153 13 -7 36 22 44 56 10 41 48 90
70 90 27 0 65 -27 65 -46 0 -22 -66 -19 -75 4 -6 16 -7 16 -20 -2 -23 -30 8
-116 41 -116 18 0 17 10 -1 34 -23 31 -18 36 35 36 l50 0 0 34 c0 71 -100 114
-148 63z"/>
<path d="M2325 471 c-57 -34 -35 -110 36 -125 18 -3 29 -12 29 -22 0 -14 -6
-15 -37 -8 -54 11 -87 11 -93 -1 -5 -11 76 -33 128 -34 32 -1 33 0 30 36 -3
38 -5 40 -78 73 -8 4 -16 17 -18 29 -3 16 2 21 17 21 12 0 21 5 21 10 0 6 35
10 86 10 64 0 85 3 82 13 -8 21 -166 20 -203 -2z"/>
<path d="M2118 443 c-8 -10 -18 -34 -21 -55 -7 -43 14 -68 57 -68 33 0 31 23
-2 28 -27 4 -28 10 -1 33 12 11 19 25 15 34 -4 12 2 15 30 15 53 0 38 24 -17
28 -34 2 -49 -2 -61 -15z"/>
<path d="M1950 390 c-20 -39 -21 -70 -3 -70 15 0 46 91 35 102 -7 7 -17 -2
-32 -32z"/>
</g>
</svg>
